<?xml version="1.0" encoding="utf-8"?>
<!-- Generator: Adobe Illustrator 24.0.1, SVG Export Plug-In . SVG Version: 6.00 Build 0)  -->
<svg version="1.1" id="Layer_1" xmlns="http://www.w3.org/2000/svg" xmlns:xlink="http://www.w3.org/1999/xlink" x="0px" y="0px"
	 viewBox="0 0 1440 62.6" style="enable-background:new 0 0 1440 62.6;" xml:space="preserve">
<style type="text/css">
	.st0{fill:none;stroke:#020F14;stroke-width:2.7;stroke-linecap:round;stroke-linejoin:round;}
</style>
<title>conveyer-lines</title>
<g>
	<line class="st0" x1="630" y1="1.4" x2="687.8" y2="61.2"/>
	<line class="st0" x1="570" y1="1.4" x2="627.8" y2="61.2"/>
	<line class="st0" x1="600" y1="1.4" x2="657.8" y2="61.2"/>
	<line class="st0" x1="510" y1="1.4" x2="567.8" y2="61.2"/>
	<line class="st0" x1="540" y1="1.4" x2="597.8" y2="61.2"/>
	<line class="st0" x1="450" y1="1.4" x2="507.8" y2="61.2"/>
	<line class="st0" x1="480" y1="1.4" x2="537.8" y2="61.2"/>
	<line class="st0" x1="390" y1="1.4" x2="447.8" y2="61.2"/>
	<line class="st0" x1="420" y1="1.4" x2="477.8" y2="61.2"/>
	<line class="st0" x1="330" y1="1.4" x2="387.8" y2="61.2"/>
	<line class="st0" x1="360" y1="1.4" x2="417.8" y2="61.2"/>
	<line class="st0" x1="270" y1="1.4" x2="327.8" y2="61.2"/>
	<line class="st0" x1="300" y1="1.4" x2="357.8" y2="61.2"/>
	<line class="st0" x1="210" y1="1.4" x2="267.8" y2="61.2"/>
	<line class="st0" x1="240" y1="1.4" x2="297.8" y2="61.2"/>
	<line class="st0" x1="180" y1="1.4" x2="237.8" y2="61.2"/>
	<line class="st0" x1="120" y1="1.4" x2="177.8" y2="61.2"/>
	<line class="st0" x1="150" y1="1.4" x2="207.8" y2="61.2"/>
	<line class="st0" x1="90" y1="1.4" x2="147.8" y2="61.2"/>
	<line class="st0" x1="0" y1="1.4" x2="57.8" y2="61.2"/>
	<line class="st0" x1="-30" y1="1.4" x2="27.8" y2="61.2"/>
	<line class="st0" x1="30" y1="1.4" x2="87.8" y2="61.2"/>
	<line class="st0" x1="60" y1="1.4" x2="117.8" y2="61.2"/>
	<line class="st0" x1="660" y1="1.4" x2="717.8" y2="61.2"/>
</g>
<g>
	<line class="st0" x1="1350" y1="1.4" x2="1407.8" y2="61.2"/>
	<line class="st0" x1="1290" y1="1.4" x2="1347.8" y2="61.2"/>
	<line class="st0" x1="1320" y1="1.4" x2="1377.8" y2="61.2"/>
	<line class="st0" x1="1230" y1="1.4" x2="1287.8" y2="61.2"/>
	<line class="st0" x1="1260" y1="1.4" x2="1317.8" y2="61.2"/>
	<line class="st0" x1="1170" y1="1.4" x2="1227.8" y2="61.2"/>
	<line class="st0" x1="1200" y1="1.4" x2="1257.8" y2="61.2"/>
	<line class="st0" x1="1110" y1="1.4" x2="1167.8" y2="61.2"/>
	<line class="st0" x1="1140" y1="1.4" x2="1197.8" y2="61.2"/>
	<line class="st0" x1="1050" y1="1.4" x2="1107.8" y2="61.2"/>
	<line class="st0" x1="1080" y1="1.4" x2="1137.8" y2="61.2"/>
	<line class="st0" x1="990" y1="1.4" x2="1047.8" y2="61.2"/>
	<line class="st0" x1="1020" y1="1.4" x2="1077.8" y2="61.2"/>
	<line class="st0" x1="930" y1="1.4" x2="987.8" y2="61.2"/>
	<line class="st0" x1="960" y1="1.4" x2="1017.8" y2="61.2"/>
	<line class="st0" x1="900" y1="1.4" x2="957.8" y2="61.2"/>
	<line class="st0" x1="840" y1="1.4" x2="897.8" y2="61.2"/>
	<line class="st0" x1="870" y1="1.4" x2="927.8" y2="61.2"/>
	<line class="st0" x1="810" y1="1.4" x2="867.8" y2="61.2"/>
	<line class="st0" x1="720" y1="1.4" x2="777.8" y2="61.2"/>
	<line class="st0" x1="690" y1="1.4" x2="747.8" y2="61.2"/>
	<line class="st0" x1="750" y1="1.4" x2="807.8" y2="61.2"/>
	<line class="st0" x1="780" y1="1.4" x2="837.8" y2="61.2"/>
	<line class="st0" x1="1380" y1="1.4" x2="1437.8" y2="61.2"/>
</g>
</svg>
